<?xml version="1.0"?>
<svg width="110" height="135" xmlns="http://www.w3.org/2000/svg" xmlns:svg="http://www.w3.org/2000/svg" version="1.1">
 <g class="layer">
  <title>Layer 1</title>
  <g id="svg_1">
   <path d="m88.04,23.23c-3.41,-3.7 -8.22,-6.78 -13.95,-8.89c-6.1,-2.24 -13.02,-3.39 -20.58,-3.39c-7.56,0 -14.5,1.14 -20.6,3.39c-5.71,2.11 -10.55,5.19 -13.95,8.9c-4.88,5.31 -6.7,11.7 -5.14,17.97l16.62,66.73c1.49,5.98 4.54,10.91 8.85,14.29c2.02,1.58 4.29,2.79 6.73,3.63c2.41,0.8 4.92,1.2 7.48,1.2c2.58,0 5.09,-0.4 7.48,-1.2c2.44,-0.82 4.71,-2.05 6.73,-3.63c4.31,-3.37 7.36,-8.31 8.85,-14.29l16.62,-66.73c1.58,-6.29 -0.24,-12.66 -5.12,-17.99zm1.25,17.23l-16.63,66.74c-3,12.06 -11.87,16.35 -19.16,16.35c-7.29,0 -16.16,-4.3 -19.16,-16.35l-16.63,-66.74c-1.31,-5.22 0.24,-10.55 4.36,-15.03c6.41,-6.99 17.87,-10.99 31.43,-10.99s25.03,4 31.43,10.99c4.1,4.47 5.65,9.81 4.36,15.03z" id="svg_2"/>
   <path d="m68.59,56.33l0,-14.4c0,-3.51 -1.58,-6.84 -4.44,-9.34c-2.85,-2.51 -6.63,-3.89 -10.65,-3.89s-7.8,1.38 -10.66,3.89c-2.85,2.5 -4.43,5.83 -4.43,9.34l0,14.4c-5.21,3.81 -8.53,9.53 -8.53,15.92c0,6.39 3.32,12.11 8.53,15.92l0,7.89c0,3.52 1.58,6.84 4.43,9.35s6.65,3.88 10.66,3.88s7.8,-1.38 10.65,-3.88s4.44,-5.83 4.44,-9.35l0,-7.89c5.21,-3.81 8.53,-9.53 8.53,-15.92c0,-6.39 -3.32,-12.11 -8.53,-15.92zm-26.2,-14.4c0,-5.37 4.98,-9.72 11.11,-9.72s11.11,4.36 11.11,9.72l0,12.06c-3.32,-1.55 -7.1,-2.42 -11.11,-2.42c-4.02,0 -7.78,0.88 -11.11,2.42l0,-12.06zm22.21,54.14c0,5.37 -4.98,9.72 -11.11,9.72s-11.11,-4.36 -11.11,-9.72l0,-5.54c3.32,1.55 7.1,2.44 11.11,2.44c4.02,0 7.78,-0.89 11.11,-2.44l0,5.54zm-11.11,-6.6c-10.82,0 -19.63,-7.73 -19.63,-17.21c0,-9.48 8.82,-17.21 19.63,-17.21s19.63,7.73 19.63,17.21c0,9.48 -8.82,17.21 -19.63,17.21z" id="svg_3"/>
   <path d="m53.51,59.02c-8.32,0 -15.09,5.95 -15.09,13.23s6.77,13.23 15.09,13.23s15.09,-5.93 15.09,-13.23s-6.77,-13.23 -15.09,-13.23zm0,22.97c-6.12,0 -11.11,-4.37 -11.11,-9.74s4.98,-9.74 11.11,-9.74s11.11,4.37 11.11,9.74s-4.98,9.74 -11.11,9.74z" id="svg_4"/>
   <path d="m59.76,70.51l-4.26,0l0,-1.83c0,-0.97 -0.9,-1.75 -2,-1.75s-2,0.79 -2,1.75l0,1.83l-2.63,0l0,-1.83c0,-0.97 -0.9,-1.75 -2,-1.75s-1.98,0.79 -1.98,1.75l0,7.14c0,0.97 0.9,1.75 1.98,1.75s2,-0.79 2,-1.75l0,-1.83l2.63,0.01l0,1.83c0,0.97 0.9,1.74 2,1.74s2,-0.77 2,-1.74l0,-1.83l2.26,0l0,1.83c0,0.97 0.9,1.74 2,1.74s1.98,-0.77 1.98,-1.74l0,-3.58c0,-0.97 -0.88,-1.74 -1.98,-1.74z" id="svg_5"/>
  </g>
 </g>
</svg>